<svg xmlns="http://www.w3.org/2000/svg" width="512" height="512" viewBox="0 0 24 24">
  <rect x="2" y="2" width="20" height="20" rx="5" fill="#0b1220"/>
  <path fill="#00e676" d="M16.85 7.15c-1.1-1.1-2.62-1.78-4.31-1.78a6.1 6.1 0 0 0-5.34 3.2a.75.75 0 1 0 1.32.72a4.6 4.6 0 0 1 4.02-2.42c1.28 0 2.43.5 3.28 1.35a.75.75 0 0 0 1.03-1.07z"/>
  <path fill="#00e676" d="M7.15 16.85c1.1 1.1 2.62 1.78 4.31 1.78a6.1 6.1 0 0 0 5.34-3.2a.75.75 0 1 0-1.32-.72a4.6 4.6 0 0 1-4.02 2.42c-1.28 0-2.43-.5-3.28-1.35a.75.75 0 1 0-1.03 1.07z"/>
  <path fill="#eafff4" d="M10.2 9.4h3.6c.44 0 .8.36.8.8v3.6c0 .44-.36.8-.8.8h-3.6a.8.8 0 0 1-.8-.8v-3.6c0-.44.36-.8.8-.8zm.8 1.6v2h2v-2z"/>
</svg>
